<svg width="27" height="27" viewBox="0 0 27 27" fill="none" xmlns="http://www.w3.org/2000/svg"><path fill-rule="evenodd" clip-rule="evenodd" d="M11.7324 7.12214C11.6134 6.55018 11.383 6.49535 11.1739 6.44729C11.0035 6.40663 10.8075 6.36917 10.6114 6.33171C10.4177 6.29472 10.0833 6.31198 9.75373 6.5791C9.42228 6.84315 8.5156 7.46535 8.21741 9.02627C7.91972 10.5846 8.68689 12.2949 8.79173 12.5341C8.8995 12.7711 10.1563 16.4364 12.9005 18.2782C15.1826 19.8072 15.7284 19.695 16.2758 19.7455C16.826 19.7938 18.1628 19.3105 18.5489 18.6159C18.9345 17.9239 19.0557 17.2897 19.0085 17.1427C18.9613 16.9957 18.7802 16.8799 18.5153 16.6643C18.2528 16.4491 16.9538 15.4082 16.7031 15.2494C16.4544 15.0937 16.2683 15.004 16.0119 15.2824C15.7555 15.5608 15.0548 16.1682 14.8426 16.3468C14.6303 16.5254 14.4559 16.5191 14.1905 16.3061C13.928 16.0909 13.0454 15.576 12.1287 14.2808C11.4154 13.2734 11.0227 12.1243 10.9117 11.773C10.8002 11.4243 10.9856 11.2812 11.1636 11.1502C11.3237 11.0347 11.5298 10.8359 11.7128 10.6788C11.8935 10.5212 11.9668 10.4 12.1065 10.2075C12.2437 10.0146 12.2307 9.82001 12.1885 9.64691C12.1463 9.47381 11.8742 7.79854 11.7324 7.12214Z" fill="#fff"/><path d="M3.89061 21.2727L4.36495 21.4308L4.453 21.1666L4.2748 20.9527L3.89061 21.2727ZM2.38889 25.7778L1.91455 25.6197L1.63529 26.4575L2.49735 26.2659L2.38889 25.7778ZM8.03513 24.5231L8.25401 24.0736L8.09706 23.9972L7.92667 24.035L8.03513 24.5231ZM25.5 13.2778C25.5 19.9052 20.1274 25.2778 13.5 25.2778V26.2778C20.6797 26.2778 26.5 20.4575 26.5 13.2778H25.5ZM13.5 1.27783C20.1274 1.27783 25.5 6.65042 25.5 13.2778H26.5C26.5 6.09813 20.6797 0.277832 13.5 0.277832V1.27783ZM1.5 13.2778C1.5 6.65042 6.87258 1.27783 13.5 1.27783V0.277832C6.3203 0.277832 0.5 6.09813 0.5 13.2778H1.5ZM4.2748 20.9527C2.54195 18.8722 1.5 16.1973 1.5 13.2778H0.5C0.5 16.4397 1.62947 19.3391 3.50641 21.5927L4.2748 20.9527ZM2.86323 25.9359L4.36495 21.4308L3.41627 21.1146L1.91455 25.6197L2.86323 25.9359ZM7.92667 24.035L2.28042 25.2897L2.49735 26.2659L8.1436 25.0112L7.92667 24.035ZM13.5 25.2778C11.6178 25.2778 9.8382 24.8449 8.25401 24.0736L7.81626 24.9727C9.53385 25.8089 11.4629 26.2778 13.5 26.2778V25.2778Z" fill="#fff"/></svg>