<svg xmlns="http://www.w3.org/2000/svg" xmlns:xlink="http://www.w3.org/1999/xlink"><symbol id="icon_arrow" viewBox="0 0 27 43"><path d="M13.9817 42.208L1.236 29.4623M13.9817 42.208L26.4788 29.7171M13.9817 42.208L13.9867 0.928377" stroke="#fff"/></symbol><symbol id="icon_fb" viewBox="0 0 25 25"><rect x=".5" y=".5" width="24" height="24" rx="3.5" stroke="#fff"/><path d="M15.6309 12.2H13.6667V20H10.75V12.2H9V9.8H10.75V8.35391C10.7523 6.24922 11.6022 5 14.013 5H16V7.4H14.667C13.7282 7.4 13.6667 7.76094 13.6667 8.43359V9.8H16L15.6309 12.2Z" fill="#fff"/></symbol><symbol id="icon_instagram" viewBox="0 0 25 25"><rect x=".5" y=".5" width="24" height="24" rx="3.5" stroke="#fff"/><circle cx="12.5" cy="12.5" r="5" stroke="#fff"/><circle cx="19.5" cy="5.5" r="1.5" fill="#fff"/></symbol><symbol id="icon_logo" viewBox="0 0 83 15"><path d="M43.8464 5.66537C43.8464 7.07771 43.1738 8.39036 42.4598 9.37864C42.1067 9.86754 41.7528 10.264 41.4877 10.5377C41.4513 10.5752 41.4166 10.6104 41.3839 10.6432C41.3512 10.6104 41.3165 10.5752 41.2801 10.5377C41.015 10.264 40.6611 9.86754 40.3079 9.37864C39.594 8.39036 38.9214 7.07771 38.9214 5.66537C38.9214 4.25302 39.594 2.94038 40.3079 1.9521C40.6611 1.4632 41.015 1.06675 41.2801 0.793059C41.3165 0.755493 41.3512 0.720292 41.3839 0.687535C41.4166 0.720292 41.4513 0.755493 41.4877 0.793059C41.7528 1.06675 42.1067 1.4632 42.4598 1.9521C43.1738 2.94038 43.8464 4.25302 43.8464 5.66537Z" stroke="#fff"/><path d="M40.1073 5.66985C40.9636 6.67066 41.3085 8.14469 41.4249 9.43943C41.4823 10.0775 41.4822 10.6501 41.4676 11.0629C41.4647 11.1439 41.4613 11.2187 41.4577 11.2863C41.3998 11.2906 41.3359 11.2946 41.2665 11.2979C40.9133 11.3149 40.4234 11.315 39.8774 11.248C38.7695 11.112 37.5082 10.7089 36.6518 9.70812C35.7955 8.70731 35.4506 7.23328 35.3342 5.93854C35.2768 5.30044 35.2769 4.72789 35.2915 4.3151C35.2944 4.23403 35.2978 4.15929 35.3014 4.09164C35.3593 4.0874 35.4232 4.08342 35.4926 4.08007C35.8458 4.06304 36.3357 4.06292 36.8818 4.12997C37.9896 4.26601 39.2509 4.66904 40.1073 5.66985Z" stroke="#fff"/><path d="M43.4826 5.66985C42.6262 6.67066 42.2814 8.14469 42.1649 9.43943C42.1076 10.0775 42.1077 10.6501 42.1223 11.0629C42.1251 11.1439 42.1285 11.2187 42.1322 11.2863C42.19 11.2906 42.254 11.2946 42.3234 11.2979C42.6766 11.3149 43.1665 11.315 43.7125 11.248C44.8204 11.112 46.0816 10.7089 46.938 9.70812C47.7944 8.70731 48.1392 7.23328 48.2556 5.93854C48.313 5.30044 48.3129 4.72789 48.2983 4.3151C48.2955 4.23403 48.2921 4.15929 48.2884 4.09164C48.2305 4.0874 48.1666 4.08342 48.0972 4.08007C47.744 4.06304 47.2541 4.06292 46.7081 4.12997C45.6002 4.26601 44.3389 4.66904 43.4826 5.66985Z" stroke="#fff"/><path d="M28.3583 8.08252H0" stroke="#fff"/><path d="M82.9999 8.08332L54.6416 8.08331" stroke="#fff"/></symbol><symbol id="icon_vk" viewBox="0 0 25 26"><rect x=".5" y="1.167" width="24" height="24" rx="3.5" stroke="#fff"/><path d="M18.3482 15.2148C19.5548 16.3842 19.8061 16.956 19.8468 17.0263C20.3449 17.8934 19.2945 17.9614 19.2945 17.9614L17.2819 17.9918C17.2819 17.9918 16.8472 18.0809 16.279 17.6708C15.5252 17.1318 14.4951 15.7257 13.9427 15.9085C13.3813 16.0936 13.5602 17.5677 13.5602 17.5677C13.5602 17.5677 13.5647 17.7481 13.4379 17.8934C13.2975 18.0457 13.0259 17.9871 13.0259 17.9871H12.4463C12.4463 17.9871 10.298 17.9965 8.54574 16.089C6.63733 14.0103 5.04132 10.1225 5.04132 10.1225C5.04132 10.1225 4.94398 9.87645 5.04811 9.74522C5.1681 9.59758 5.49182 9.59992 5.49182 9.59992H7.64474C7.64474 9.59992 7.84622 9.62805 7.9911 9.74053C8.11335 9.83193 8.179 10.0053 8.179 10.0053C8.179 10.0053 8.43934 10.7295 8.90117 11.5637C9.79991 13.1901 10.2187 13.5463 10.5243 13.3705C10.9681 13.1151 10.8345 11.0716 10.8345 11.0716C10.8345 11.0716 10.8435 10.3287 10.6104 9.99831C10.4293 9.74053 10.0919 9.66554 9.94253 9.64445C9.82029 9.63039 10.0195 9.33511 10.2776 9.20388C10.6647 9.00703 11.3506 8.99297 12.1588 9.00234C12.7882 9.00937 13.0259 9 13.0259 9C13.7684 9.18748 13.5171 9.91395 13.5171 11.6481C13.5171 12.2058 13.4198 12.9886 13.8046 13.2463C13.9699 13.3612 14.563 13.3776 15.5704 11.5848C16.0504 10.7342 16.4284 9.93504 16.4284 9.93504C16.4284 9.93504 16.5099 9.75459 16.6299 9.6796C16.7567 9.59992 16.9242 9.59992 16.9242 9.59992L19.1903 9.61164C19.1903 9.61164 19.8717 9.52259 19.9804 9.84599C20.0959 10.1834 19.702 10.774 18.7783 12.0652C17.257 14.1861 17.0872 13.9892 18.3482 15.2148Z" fill="#fff"/></symbol><symbol id="icon_whatsapp" viewBox="0 0 27 27"><path fill-rule="evenodd" clip-rule="evenodd" d="M11.7324 7.12214C11.6134 6.55018 11.383 6.49535 11.1739 6.44729C11.0035 6.40663 10.8075 6.36917 10.6114 6.33171C10.4177 6.29472 10.0833 6.31198 9.75373 6.5791C9.42228 6.84315 8.5156 7.46535 8.21741 9.02627C7.91972 10.5846 8.68689 12.2949 8.79173 12.5341C8.8995 12.7711 10.1563 16.4364 12.9005 18.2782C15.1826 19.8072 15.7284 19.695 16.2758 19.7455C16.826 19.7938 18.1628 19.3105 18.5489 18.6159C18.9345 17.9239 19.0557 17.2897 19.0085 17.1427C18.9613 16.9957 18.7802 16.8799 18.5153 16.6643C18.2528 16.4491 16.9538 15.4082 16.7031 15.2494C16.4544 15.0937 16.2683 15.004 16.0119 15.2824C15.7555 15.5608 15.0548 16.1682 14.8426 16.3468C14.6303 16.5254 14.4559 16.5191 14.1905 16.3061C13.928 16.0909 13.0454 15.576 12.1287 14.2808C11.4154 13.2734 11.0227 12.1243 10.9117 11.773C10.8002 11.4243 10.9856 11.2812 11.1636 11.1502C11.3237 11.0347 11.5298 10.8359 11.7128 10.6788C11.8935 10.5212 11.9668 10.4 12.1065 10.2075C12.2437 10.0146 12.2307 9.82001 12.1885 9.64691C12.1463 9.47381 11.8742 7.79854 11.7324 7.12214Z" fill="#fff"/><path d="M3.89061 21.2727L4.36495 21.4308L4.453 21.1666L4.2748 20.9527L3.89061 21.2727ZM2.38889 25.7778L1.91455 25.6197L1.63529 26.4575L2.49735 26.2659L2.38889 25.7778ZM8.03513 24.5231L8.25401 24.0736L8.09706 23.9972L7.92667 24.035L8.03513 24.5231ZM25.5 13.2778C25.5 19.9052 20.1274 25.2778 13.5 25.2778V26.2778C20.6797 26.2778 26.5 20.4575 26.5 13.2778H25.5ZM13.5 1.27783C20.1274 1.27783 25.5 6.65042 25.5 13.2778H26.5C26.5 6.09813 20.6797 0.277832 13.5 0.277832V1.27783ZM1.5 13.2778C1.5 6.65042 6.87258 1.27783 13.5 1.27783V0.277832C6.3203 0.277832 0.5 6.09813 0.5 13.2778H1.5ZM4.2748 20.9527C2.54195 18.8722 1.5 16.1973 1.5 13.2778H0.5C0.5 16.4397 1.62947 19.3391 3.50641 21.5927L4.2748 20.9527ZM2.86323 25.9359L4.36495 21.4308L3.41627 21.1146L1.91455 25.6197L2.86323 25.9359ZM7.92667 24.035L2.28042 25.2897L2.49735 26.2659L8.1436 25.0112L7.92667 24.035ZM13.5 25.2778C11.6178 25.2778 9.8382 24.8449 8.25401 24.0736L7.81626 24.9727C9.53385 25.8089 11.4629 26.2778 13.5 26.2778V25.2778Z" fill="#fff"/></symbol></svg>